<mxfile host="app.diagrams.net" modified="2020-05-24T16:17:55.051Z" agent="5.0 (Windows NT 10.0; Win64; x64) AppleWebKit/537.36 (KHTML, like Gecko) Chrome/81.0.4044.138 Safari/537.36" etag="mjG18jZRDVyVkH7Bsbv7" version="13.1.3" type="github">
  <diagram id="Ul_Qv3q_6B_l5HidEIXD" name="Page-1">
    <mxGraphModel dx="2153" dy="1882" grid="1" gridSize="10" guides="1" tooltips="1" connect="1" arrows="1" fold="1" page="1" pageScale="1" pageWidth="850" pageHeight="1100" math="0" shadow="0">
      <root>
        <mxCell id="0" />
        <mxCell id="1" parent="0" />
        <mxCell id="LVXJgCznI9-7iAya-46N-1" value="" style="edgeStyle=orthogonalEdgeStyle;rounded=0;orthogonalLoop=1;jettySize=auto;html=1;entryX=0.5;entryY=1;entryDx=0;entryDy=0;endArrow=none;endFill=0;" parent="1" source="LVXJgCznI9-7iAya-46N-2" target="LVXJgCznI9-7iAya-46N-3" edge="1">
          <mxGeometry relative="1" as="geometry">
            <mxPoint x="400" y="120" as="targetPoint" />
            <Array as="points">
              <mxPoint x="270" y="185" />
              <mxPoint x="270" y="140" />
              <mxPoint x="305" y="140" />
            </Array>
          </mxGeometry>
        </mxCell>
        <mxCell id="LVXJgCznI9-7iAya-46N-82" style="edgeStyle=orthogonalEdgeStyle;rounded=0;orthogonalLoop=1;jettySize=auto;html=1;startArrow=ERzeroToMany;startFill=1;endArrow=none;endFill=0;" parent="1" source="LVXJgCznI9-7iAya-46N-2" edge="1">
          <mxGeometry relative="1" as="geometry">
            <mxPoint y="200" as="targetPoint" />
          </mxGeometry>
        </mxCell>
        <mxCell id="LVXJgCznI9-7iAya-46N-2" value="Player" style="rounded=0;whiteSpace=wrap;html=1;fillColor=#d5e8d4;strokeColor=#82b366;fontStyle=1;fontSize=18;" parent="1" vertex="1">
          <mxGeometry x="120" y="150" width="120" height="70" as="geometry" />
        </mxCell>
        <mxCell id="LVXJgCznI9-7iAya-46N-3" value="p_age&lt;br style=&quot;font-size: 14px;&quot;&gt;" style="ellipse;whiteSpace=wrap;html=1;fillColor=#f5f5f5;strokeColor=#666666;fontColor=#333333;fontStyle=0;fontSize=14;" parent="1" vertex="1">
          <mxGeometry x="270" y="40" width="70" height="60" as="geometry" />
        </mxCell>
        <mxCell id="LVXJgCznI9-7iAya-46N-4" value="" style="edgeStyle=orthogonalEdgeStyle;rounded=0;orthogonalLoop=1;jettySize=auto;html=1;endArrow=none;endFill=0;" parent="1" source="LVXJgCznI9-7iAya-46N-5" target="LVXJgCznI9-7iAya-46N-2" edge="1">
          <mxGeometry relative="1" as="geometry" />
        </mxCell>
        <mxCell id="LVXJgCznI9-7iAya-46N-5" value="p_nationality&lt;br style=&quot;font-size: 14px;&quot;&gt;" style="ellipse;whiteSpace=wrap;html=1;fillColor=#f5f5f5;strokeColor=#666666;fontColor=#333333;fontSize=14;" parent="1" vertex="1">
          <mxGeometry x="145" y="30" width="85" height="70" as="geometry" />
        </mxCell>
        <mxCell id="LVXJgCznI9-7iAya-46N-81" style="edgeStyle=orthogonalEdgeStyle;rounded=0;orthogonalLoop=1;jettySize=auto;html=1;entryX=0;entryY=0;entryDx=0;entryDy=0;startArrow=none;startFill=0;endArrow=none;endFill=0;" parent="1" source="LVXJgCznI9-7iAya-46N-7" target="LVXJgCznI9-7iAya-46N-2" edge="1">
          <mxGeometry relative="1" as="geometry" />
        </mxCell>
        <mxCell id="LVXJgCznI9-7iAya-46N-7" value="&lt;font style=&quot;font-size: 14px&quot;&gt;p_name&lt;/font&gt;" style="ellipse;whiteSpace=wrap;html=1;fillColor=#fff2cc;strokeColor=#d6b656;fontStyle=1;fontSize=14;" parent="1" vertex="1">
          <mxGeometry y="-10" width="90" height="67.5" as="geometry" />
        </mxCell>
        <mxCell id="LVXJgCznI9-7iAya-46N-8" value="" style="edgeStyle=orthogonalEdgeStyle;rounded=0;orthogonalLoop=1;jettySize=auto;html=1;entryX=0.75;entryY=1;entryDx=0;entryDy=0;endArrow=none;endFill=0;" parent="1" source="LVXJgCznI9-7iAya-46N-9" target="LVXJgCznI9-7iAya-46N-2" edge="1">
          <mxGeometry relative="1" as="geometry">
            <mxPoint x="220" y="260" as="targetPoint" />
          </mxGeometry>
        </mxCell>
        <mxCell id="LVXJgCznI9-7iAya-46N-9" value="style" style="ellipse;whiteSpace=wrap;html=1;fillColor=#f5f5f5;strokeColor=#666666;fontColor=#333333;fontSize=14;" parent="1" vertex="1">
          <mxGeometry x="210" y="260" width="60" height="60" as="geometry" />
        </mxCell>
        <mxCell id="LVXJgCznI9-7iAya-46N-10" value="" style="edgeStyle=entityRelationEdgeStyle;fontSize=12;html=1;endArrow=ERzeroToMany;startArrow=none;endFill=1;startFill=0;" parent="1" edge="1">
          <mxGeometry width="100" height="100" relative="1" as="geometry">
            <mxPoint x="462" y="185" as="sourcePoint" />
            <mxPoint x="610" y="150" as="targetPoint" />
          </mxGeometry>
        </mxCell>
        <mxCell id="LVXJgCznI9-7iAya-46N-11" value="Tournament" style="rounded=0;whiteSpace=wrap;html=1;fillColor=#d5e8d4;strokeColor=#82b366;fontStyle=1;fontSize=18;" parent="1" vertex="1">
          <mxGeometry x="610" y="120" width="120" height="60" as="geometry" />
        </mxCell>
        <mxCell id="LVXJgCznI9-7iAya-46N-56" style="edgeStyle=orthogonalEdgeStyle;rounded=0;orthogonalLoop=1;jettySize=auto;html=1;entryX=0;entryY=0;entryDx=0;entryDy=0;endArrow=none;endFill=0;" parent="1" source="LVXJgCznI9-7iAya-46N-13" target="LVXJgCznI9-7iAya-46N-11" edge="1">
          <mxGeometry relative="1" as="geometry" />
        </mxCell>
        <mxCell id="LVXJgCznI9-7iAya-46N-13" value="&lt;b&gt;&lt;span style=&quot;font-size: 11.0pt ; line-height: 107% ; font-family: &amp;#34;맑은 고딕&amp;#34;&quot;&gt;t_name&lt;/span&gt;&lt;/b&gt;" style="ellipse;whiteSpace=wrap;html=1;fillColor=#fff2cc;strokeColor=#d6b656;" parent="1" vertex="1">
          <mxGeometry x="480" y="45" width="60" height="60" as="geometry" />
        </mxCell>
        <mxCell id="LVXJgCznI9-7iAya-46N-14" style="edgeStyle=orthogonalEdgeStyle;rounded=0;orthogonalLoop=1;jettySize=auto;html=1;entryX=0;entryY=1;entryDx=0;entryDy=0;endArrow=none;endFill=0;" parent="1" source="LVXJgCznI9-7iAya-46N-15" target="LVXJgCznI9-7iAya-46N-11" edge="1">
          <mxGeometry relative="1" as="geometry" />
        </mxCell>
        <mxCell id="LVXJgCznI9-7iAya-46N-15" value="&lt;u style=&quot;font-size: 14px;&quot;&gt;&lt;span style=&quot;font-size: 14px; line-height: 107%; font-family: &amp;quot;맑은 고딕&amp;quot;;&quot;&gt;stadium_name&lt;/span&gt;&lt;/u&gt;" style="ellipse;whiteSpace=wrap;html=1;fillColor=#f5f5f5;strokeColor=#666666;fontColor=#333333;fontSize=14;" parent="1" vertex="1">
          <mxGeometry x="480" y="210" width="110" height="70" as="geometry" />
        </mxCell>
        <mxCell id="LVXJgCznI9-7iAya-46N-16" value="" style="edgeStyle=orthogonalEdgeStyle;rounded=0;orthogonalLoop=1;jettySize=auto;html=1;endArrow=none;endFill=0;" parent="1" source="LVXJgCznI9-7iAya-46N-17" target="LVXJgCznI9-7iAya-46N-11" edge="1">
          <mxGeometry relative="1" as="geometry">
            <Array as="points">
              <mxPoint x="727" y="190" />
              <mxPoint x="727" y="190" />
            </Array>
          </mxGeometry>
        </mxCell>
        <mxCell id="LVXJgCznI9-7iAya-46N-17" value="&lt;span style=&quot;font-size: 14px; line-height: 107%; font-family: &amp;quot;맑은 고딕&amp;quot;;&quot;&gt;prize_amount&lt;/span&gt;" style="ellipse;whiteSpace=wrap;html=1;aspect=fixed;fillColor=#f5f5f5;strokeColor=#666666;fontColor=#333333;fontStyle=4;fontSize=14;" parent="1" vertex="1">
          <mxGeometry x="920" y="200" width="95" height="95" as="geometry" />
        </mxCell>
        <mxCell id="LVXJgCznI9-7iAya-46N-59" style="edgeStyle=orthogonalEdgeStyle;rounded=0;orthogonalLoop=1;jettySize=auto;html=1;entryX=0.5;entryY=1;entryDx=0;entryDy=0;startArrow=ERzeroToOne;startFill=1;endArrow=none;endFill=0;" parent="1" source="LVXJgCznI9-7iAya-46N-19" target="LVXJgCznI9-7iAya-46N-44" edge="1">
          <mxGeometry relative="1" as="geometry" />
        </mxCell>
        <mxCell id="LVXJgCznI9-7iAya-46N-19" value="Stadium&lt;br&gt;" style="rounded=0;whiteSpace=wrap;html=1;fillColor=#d5e8d4;strokeColor=#82b366;fontStyle=1;fontSize=18;" parent="1" vertex="1">
          <mxGeometry x="95" y="480" width="130" height="60" as="geometry" />
        </mxCell>
        <mxCell id="LVXJgCznI9-7iAya-46N-86" style="edgeStyle=orthogonalEdgeStyle;rounded=0;orthogonalLoop=1;jettySize=auto;html=1;entryX=0;entryY=0.5;entryDx=0;entryDy=0;startArrow=none;startFill=0;endArrow=none;endFill=0;" parent="1" source="LVXJgCznI9-7iAya-46N-21" target="LVXJgCznI9-7iAya-46N-19" edge="1">
          <mxGeometry relative="1" as="geometry" />
        </mxCell>
        <mxCell id="LVXJgCznI9-7iAya-46N-21" value="stadium_name&lt;br style=&quot;font-size: 14px;&quot;&gt;" style="ellipse;whiteSpace=wrap;html=1;aspect=fixed;fillColor=#fff2cc;strokeColor=#d6b656;fontStyle=1;fontSize=14;" parent="1" vertex="1">
          <mxGeometry x="-110" y="465" width="115" height="115" as="geometry" />
        </mxCell>
        <mxCell id="LVXJgCznI9-7iAya-46N-22" value="" style="edgeStyle=orthogonalEdgeStyle;rounded=0;orthogonalLoop=1;jettySize=auto;html=1;endArrow=none;endFill=0;entryX=0.146;entryY=1.032;entryDx=0;entryDy=0;entryPerimeter=0;" parent="1" source="LVXJgCznI9-7iAya-46N-23" target="LVXJgCznI9-7iAya-46N-19" edge="1">
          <mxGeometry relative="1" as="geometry" />
        </mxCell>
        <mxCell id="LVXJgCznI9-7iAya-46N-23" value="&lt;font style=&quot;font-size: 14px&quot;&gt;location&lt;/font&gt;" style="ellipse;whiteSpace=wrap;html=1;aspect=fixed;fillColor=#f5f5f5;strokeColor=#666666;fontColor=#333333;fontStyle=0;fontSize=14;" parent="1" vertex="1">
          <mxGeometry x="60" y="600" width="85" height="85" as="geometry" />
        </mxCell>
        <mxCell id="LVXJgCznI9-7iAya-46N-87" style="edgeStyle=orthogonalEdgeStyle;rounded=0;orthogonalLoop=1;jettySize=auto;html=1;entryX=0.75;entryY=1;entryDx=0;entryDy=0;startArrow=none;startFill=0;endArrow=none;endFill=0;fontSize=14;" parent="1" source="LVXJgCznI9-7iAya-46N-25" target="LVXJgCznI9-7iAya-46N-19" edge="1">
          <mxGeometry relative="1" as="geometry">
            <Array as="points">
              <mxPoint x="220" y="550" />
              <mxPoint x="192" y="550" />
            </Array>
          </mxGeometry>
        </mxCell>
        <mxCell id="LVXJgCznI9-7iAya-46N-25" value="&lt;span style=&quot;font-size: 14px; line-height: 107%; font-family: &amp;quot;맑은 고딕&amp;quot;;&quot;&gt;seat_amount&lt;/span&gt;" style="ellipse;whiteSpace=wrap;html=1;aspect=fixed;fillColor=#f5f5f5;strokeColor=#666666;fontColor=#333333;fontSize=14;" parent="1" vertex="1">
          <mxGeometry x="170" y="660" width="100" height="100" as="geometry" />
        </mxCell>
        <mxCell id="LVXJgCznI9-7iAya-46N-29" value="sponsor&lt;br&gt;" style="rounded=0;whiteSpace=wrap;html=1;fillColor=#d5e8d4;strokeColor=#82b366;fontStyle=1;fontSize=18;" parent="1" vertex="1">
          <mxGeometry x="550" y="460" width="140" height="70" as="geometry" />
        </mxCell>
        <mxCell id="LVXJgCznI9-7iAya-46N-88" style="edgeStyle=orthogonalEdgeStyle;rounded=0;orthogonalLoop=1;jettySize=auto;html=1;entryX=1;entryY=0.5;entryDx=0;entryDy=0;startArrow=none;startFill=0;endArrow=none;endFill=0;fontSize=14;" parent="1" source="LVXJgCznI9-7iAya-46N-31" target="LVXJgCznI9-7iAya-46N-29" edge="1">
          <mxGeometry relative="1" as="geometry" />
        </mxCell>
        <mxCell id="LVXJgCznI9-7iAya-46N-31" value="&lt;span style=&quot;font-size: 14px; line-height: 107%; font-family: &amp;quot;맑은 고딕&amp;quot;;&quot;&gt;fund_amount&lt;/span&gt;" style="ellipse;whiteSpace=wrap;html=1;fillColor=#f5f5f5;strokeColor=#666666;fontColor=#333333;fontStyle=0;fontSize=14;" parent="1" vertex="1">
          <mxGeometry x="800" y="465" width="110" height="50" as="geometry" />
        </mxCell>
        <mxCell id="LVXJgCznI9-7iAya-46N-32" value="" style="edgeStyle=orthogonalEdgeStyle;rounded=0;orthogonalLoop=1;jettySize=auto;html=1;entryX=0.5;entryY=1;entryDx=0;entryDy=0;endArrow=none;endFill=0;" parent="1" source="LVXJgCznI9-7iAya-46N-33" target="LVXJgCznI9-7iAya-46N-29" edge="1">
          <mxGeometry relative="1" as="geometry">
            <mxPoint x="535" y="480" as="targetPoint" />
          </mxGeometry>
        </mxCell>
        <mxCell id="LVXJgCznI9-7iAya-46N-33" value="sponsor_name&lt;br style=&quot;font-size: 14px;&quot;&gt;" style="ellipse;whiteSpace=wrap;html=1;fillColor=#fff2cc;strokeColor=#d6b656;fontSize=14;fontStyle=1" parent="1" vertex="1">
          <mxGeometry x="570" y="627.5" width="100" height="60" as="geometry" />
        </mxCell>
        <mxCell id="LVXJgCznI9-7iAya-46N-34" value="" style="edgeStyle=entityRelationEdgeStyle;fontSize=12;html=1;endArrow=ERzeroToOne;endFill=1;startArrow=none;exitX=1;exitY=0.5;exitDx=0;exitDy=0;startFill=0;" parent="1" source="LVXJgCznI9-7iAya-46N-35" edge="1">
          <mxGeometry width="100" height="100" relative="1" as="geometry">
            <mxPoint x="450" y="580" as="sourcePoint" />
            <mxPoint x="550" y="480" as="targetPoint" />
          </mxGeometry>
        </mxCell>
        <mxCell id="LVXJgCznI9-7iAya-46N-35" value="have&lt;br&gt;" style="rhombus;whiteSpace=wrap;html=1;fillColor=#f8cecc;strokeColor=#b85450;" parent="1" vertex="1">
          <mxGeometry x="345" y="330" width="80" height="80" as="geometry" />
        </mxCell>
        <mxCell id="LVXJgCznI9-7iAya-46N-36" value="" style="edgeStyle=entityRelationEdgeStyle;fontSize=12;html=1;endArrow=none;endFill=0;startArrow=ERoneToMany;exitX=1;exitY=1;exitDx=0;exitDy=0;startFill=0;" parent="1" source="LVXJgCznI9-7iAya-46N-2" target="LVXJgCznI9-7iAya-46N-35" edge="1">
          <mxGeometry width="100" height="100" relative="1" as="geometry">
            <mxPoint x="160" y="465" as="sourcePoint" />
            <mxPoint x="550" y="480" as="targetPoint" />
          </mxGeometry>
        </mxCell>
        <mxCell id="LVXJgCznI9-7iAya-46N-37" value="have&lt;br&gt;" style="rhombus;whiteSpace=wrap;html=1;fillColor=#f8cecc;strokeColor=#b85450;" parent="1" vertex="1">
          <mxGeometry x="380" y="145" width="80" height="80" as="geometry" />
        </mxCell>
        <mxCell id="LVXJgCznI9-7iAya-46N-38" value="" style="edgeStyle=entityRelationEdgeStyle;fontSize=12;html=1;endArrow=none;startArrow=ERoneToMany;startFill=0;endFill=0;" parent="1" target="LVXJgCznI9-7iAya-46N-37" edge="1">
          <mxGeometry width="100" height="100" relative="1" as="geometry">
            <mxPoint x="243" y="200" as="sourcePoint" />
            <mxPoint x="610" y="149.9999999999999" as="targetPoint" />
          </mxGeometry>
        </mxCell>
        <mxCell id="LVXJgCznI9-7iAya-46N-40" value="" style="edgeStyle=orthogonalEdgeStyle;rounded=0;orthogonalLoop=1;jettySize=auto;html=1;startArrow=none;startFill=0;endArrow=none;endFill=0;fontSize=12;" parent="1" source="LVXJgCznI9-7iAya-46N-41" target="LVXJgCznI9-7iAya-46N-29" edge="1">
          <mxGeometry relative="1" as="geometry">
            <Array as="points">
              <mxPoint x="545" y="450" />
              <mxPoint x="580" y="450" />
            </Array>
          </mxGeometry>
        </mxCell>
        <mxCell id="LVXJgCznI9-7iAya-46N-41" value="&lt;u style=&quot;font-size: 14px;&quot;&gt;&lt;span style=&quot;font-size: 14px; line-height: 107%; font-family: &amp;quot;맑은 고딕&amp;quot;;&quot;&gt;p_name&lt;/span&gt;&lt;/u&gt;" style="ellipse;whiteSpace=wrap;html=1;fontSize=14;fillColor=#f5f5f5;strokeColor=#666666;fontColor=#333333;" parent="1" vertex="1">
          <mxGeometry x="500" y="380" width="90" height="50" as="geometry" />
        </mxCell>
        <mxCell id="LVXJgCznI9-7iAya-46N-51" style="edgeStyle=orthogonalEdgeStyle;rounded=0;orthogonalLoop=1;jettySize=auto;html=1;entryX=0.333;entryY=0.99;entryDx=0;entryDy=0;entryPerimeter=0;endArrow=ERzeroToMany;endFill=1;" parent="1" source="LVXJgCznI9-7iAya-46N-44" target="LVXJgCznI9-7iAya-46N-2" edge="1">
          <mxGeometry relative="1" as="geometry" />
        </mxCell>
        <mxCell id="LVXJgCznI9-7iAya-46N-44" value="have" style="rhombus;whiteSpace=wrap;html=1;fillColor=#f8cecc;strokeColor=#b85450;" parent="1" vertex="1">
          <mxGeometry x="120" y="300" width="80" height="80" as="geometry" />
        </mxCell>
        <mxCell id="LVXJgCznI9-7iAya-46N-48" style="edgeStyle=orthogonalEdgeStyle;rounded=0;orthogonalLoop=1;jettySize=auto;html=1;entryX=0;entryY=0.25;entryDx=0;entryDy=0;endArrow=none;endFill=0;" parent="1" source="LVXJgCznI9-7iAya-46N-47" target="LVXJgCznI9-7iAya-46N-2" edge="1">
          <mxGeometry relative="1" as="geometry" />
        </mxCell>
        <mxCell id="LVXJgCznI9-7iAya-46N-47" value="&lt;u style=&quot;font-size: 14px;&quot;&gt;&lt;span style=&quot;font-size: 14px; line-height: 107%; font-family: &amp;quot;맑은 고딕&amp;quot;;&quot;&gt;stadium_name&lt;/span&gt;&lt;/u&gt;" style="ellipse;whiteSpace=wrap;html=1;fillColor=#f5f5f5;strokeColor=#666666;fontColor=#333333;fontSize=14;" parent="1" vertex="1">
          <mxGeometry x="-40" y="70" width="120" height="80" as="geometry" />
        </mxCell>
        <mxCell id="LVXJgCznI9-7iAya-46N-50" style="edgeStyle=orthogonalEdgeStyle;rounded=0;orthogonalLoop=1;jettySize=auto;html=1;endArrow=none;endFill=0;" parent="1" source="LVXJgCznI9-7iAya-46N-49" edge="1">
          <mxGeometry relative="1" as="geometry">
            <mxPoint x="130" y="220" as="targetPoint" />
            <Array as="points">
              <mxPoint x="130" y="280" />
            </Array>
          </mxGeometry>
        </mxCell>
        <mxCell id="LVXJgCznI9-7iAya-46N-49" value="&lt;u style=&quot;font-size: 14px;&quot;&gt;&lt;span style=&quot;font-size: 14px; line-height: 107%; font-family: &amp;quot;맑은 고딕&amp;quot;;&quot;&gt;a_name&lt;/span&gt;&lt;/u&gt;" style="ellipse;whiteSpace=wrap;html=1;fillColor=#f5f5f5;strokeColor=#666666;fontColor=#333333;fontStyle=4;fontSize=14;" parent="1" vertex="1">
          <mxGeometry x="10" y="250" width="70" height="60" as="geometry" />
        </mxCell>
        <mxCell id="LVXJgCznI9-7iAya-46N-53" style="edgeStyle=orthogonalEdgeStyle;rounded=0;orthogonalLoop=1;jettySize=auto;html=1;entryX=1.022;entryY=0.622;entryDx=0;entryDy=0;entryPerimeter=0;endArrow=none;endFill=0;" parent="1" source="LVXJgCznI9-7iAya-46N-52" target="LVXJgCznI9-7iAya-46N-11" edge="1">
          <mxGeometry relative="1" as="geometry" />
        </mxCell>
        <mxCell id="LVXJgCznI9-7iAya-46N-52" value="&lt;u style=&quot;font-size: 14px;&quot;&gt;&lt;span style=&quot;font-size: 14px; line-height: 107%; font-family: &amp;quot;맑은 고딕&amp;quot;;&quot;&gt;sponsor_name&lt;/span&gt;&lt;/u&gt;" style="ellipse;whiteSpace=wrap;html=1;aspect=fixed;fillColor=#f5f5f5;strokeColor=#666666;fontColor=#333333;fontStyle=4;fontSize=14;" parent="1" vertex="1">
          <mxGeometry x="800" y="100" width="115" height="115" as="geometry" />
        </mxCell>
        <mxCell id="LVXJgCznI9-7iAya-46N-58" style="edgeStyle=orthogonalEdgeStyle;rounded=0;orthogonalLoop=1;jettySize=auto;html=1;entryX=1;entryY=0;entryDx=0;entryDy=0;endArrow=none;endFill=0;" parent="1" source="LVXJgCznI9-7iAya-46N-54" target="LVXJgCznI9-7iAya-46N-11" edge="1">
          <mxGeometry relative="1" as="geometry" />
        </mxCell>
        <mxCell id="LVXJgCznI9-7iAya-46N-54" value="&lt;span style=&quot;font-size: 14px; line-height: 107%; font-family: &amp;quot;맑은 고딕&amp;quot;;&quot;&gt;t_end_date&lt;/span&gt;" style="ellipse;whiteSpace=wrap;html=1;aspect=fixed;fillColor=#f5f5f5;strokeColor=#666666;fontColor=#333333;fontStyle=0;fontSize=14;" parent="1" vertex="1">
          <mxGeometry x="755" width="95" height="95" as="geometry" />
        </mxCell>
        <mxCell id="LVXJgCznI9-7iAya-46N-90" style="edgeStyle=orthogonalEdgeStyle;rounded=0;orthogonalLoop=1;jettySize=auto;html=1;entryX=0.25;entryY=0;entryDx=0;entryDy=0;startArrow=none;startFill=0;endArrow=none;endFill=0;fontSize=14;" parent="1" source="LVXJgCznI9-7iAya-46N-55" target="LVXJgCznI9-7iAya-46N-11" edge="1">
          <mxGeometry relative="1" as="geometry" />
        </mxCell>
        <mxCell id="LVXJgCznI9-7iAya-46N-55" value="&lt;span style=&quot;font-size: 14px; line-height: 107%; font-family: &amp;quot;맑은 고딕&amp;quot;;&quot;&gt;t_start_date&lt;/span&gt;" style="ellipse;whiteSpace=wrap;html=1;aspect=fixed;fillColor=#f5f5f5;strokeColor=#666666;fontColor=#333333;fontStyle=0;fontSize=14;" parent="1" vertex="1">
          <mxGeometry x="610" y="-30" width="95" height="95" as="geometry" />
        </mxCell>
        <mxCell id="LVXJgCznI9-7iAya-46N-61" value="Accommodation&lt;br&gt;" style="rounded=0;whiteSpace=wrap;html=1;fillColor=#d5e8d4;strokeColor=#82b366;fontStyle=1;fontSize=18;" parent="1" vertex="1">
          <mxGeometry x="-370" y="170" width="170" height="90" as="geometry" />
        </mxCell>
        <mxCell id="LVXJgCznI9-7iAya-46N-63" style="edgeStyle=orthogonalEdgeStyle;rounded=0;orthogonalLoop=1;jettySize=auto;html=1;startArrow=none;startFill=0;endArrow=none;endFill=0;" parent="1" source="LVXJgCznI9-7iAya-46N-62" target="LVXJgCznI9-7iAya-46N-61" edge="1">
          <mxGeometry relative="1" as="geometry" />
        </mxCell>
        <mxCell id="LVXJgCznI9-7iAya-46N-62" value="&lt;span style=&quot;font-size: 14px;&quot;&gt;&lt;span style=&quot;font-size: 14px; line-height: 107%; font-family: &amp;quot;맑은 고딕&amp;quot;;&quot;&gt;a_name&lt;/span&gt;&lt;/span&gt;" style="ellipse;whiteSpace=wrap;html=1;fillColor=#fff2cc;strokeColor=#d6b656;fontStyle=1;fontSize=14;" parent="1" vertex="1">
          <mxGeometry x="-320" y="50" width="70" height="60" as="geometry" />
        </mxCell>
        <mxCell id="LVXJgCznI9-7iAya-46N-65" style="edgeStyle=orthogonalEdgeStyle;rounded=0;orthogonalLoop=1;jettySize=auto;html=1;entryX=0;entryY=0.5;entryDx=0;entryDy=0;startArrow=none;startFill=0;endArrow=none;endFill=0;" parent="1" source="LVXJgCznI9-7iAya-46N-64" target="LVXJgCznI9-7iAya-46N-61" edge="1">
          <mxGeometry relative="1" as="geometry" />
        </mxCell>
        <mxCell id="LVXJgCznI9-7iAya-46N-64" value="&lt;span style=&quot;font-size: 14px&quot;&gt;&lt;span style=&quot;font-size: 14px ; line-height: 107% ; font-family: &amp;#34;맑은 고딕&amp;#34;&quot;&gt;&lt;u&gt;location&lt;/u&gt;&lt;/span&gt;&lt;/span&gt;" style="ellipse;whiteSpace=wrap;html=1;fillColor=#f5f5f5;strokeColor=#666666;fontColor=#333333;fontStyle=0;fontSize=14;" parent="1" vertex="1">
          <mxGeometry x="-590" y="180" width="100" height="80" as="geometry" />
        </mxCell>
        <mxCell id="LVXJgCznI9-7iAya-46N-67" style="edgeStyle=orthogonalEdgeStyle;rounded=0;orthogonalLoop=1;jettySize=auto;html=1;entryX=0.25;entryY=0;entryDx=0;entryDy=0;startArrow=none;startFill=0;endArrow=none;endFill=0;" parent="1" source="LVXJgCznI9-7iAya-46N-66" target="LVXJgCznI9-7iAya-46N-61" edge="1">
          <mxGeometry relative="1" as="geometry" />
        </mxCell>
        <mxCell id="LVXJgCznI9-7iAya-46N-66" value="&lt;span style=&quot;font-size: 14px ; line-height: 107% ; font-family: &amp;#34;맑은 고딕&amp;#34;&quot;&gt;fee_per_night&lt;/span&gt;" style="ellipse;whiteSpace=wrap;html=1;fillColor=#f5f5f5;strokeColor=#666666;fontColor=#333333;fontStyle=0;fontSize=14;" parent="1" vertex="1">
          <mxGeometry x="-490" y="45" width="150" height="60" as="geometry" />
        </mxCell>
        <mxCell id="LVXJgCznI9-7iAya-46N-68" value="Coach" style="rounded=0;whiteSpace=wrap;html=1;fillColor=#d5e8d4;strokeColor=#82b366;fontStyle=1;fontSize=18;" parent="1" vertex="1">
          <mxGeometry x="-400" y="610" width="120" height="70" as="geometry" />
        </mxCell>
        <mxCell id="LVXJgCznI9-7iAya-46N-70" style="edgeStyle=orthogonalEdgeStyle;rounded=0;orthogonalLoop=1;jettySize=auto;html=1;startArrow=none;startFill=0;endArrow=none;endFill=0;" parent="1" source="LVXJgCznI9-7iAya-46N-69" target="LVXJgCznI9-7iAya-46N-68" edge="1">
          <mxGeometry relative="1" as="geometry" />
        </mxCell>
        <mxCell id="LVXJgCznI9-7iAya-46N-69" value="c_name&lt;br style=&quot;font-size: 14px;&quot;&gt;" style="ellipse;whiteSpace=wrap;html=1;fillColor=#fff2cc;strokeColor=#d6b656;fontStyle=5;fontSize=14;" parent="1" vertex="1">
          <mxGeometry x="-330" y="715" width="70" height="60" as="geometry" />
        </mxCell>
        <mxCell id="LVXJgCznI9-7iAya-46N-73" style="edgeStyle=orthogonalEdgeStyle;rounded=0;orthogonalLoop=1;jettySize=auto;html=1;entryX=0;entryY=0;entryDx=0;entryDy=0;startArrow=none;startFill=0;endArrow=none;endFill=0;" parent="1" source="LVXJgCznI9-7iAya-46N-72" target="LVXJgCznI9-7iAya-46N-68" edge="1">
          <mxGeometry relative="1" as="geometry" />
        </mxCell>
        <mxCell id="LVXJgCznI9-7iAya-46N-102" style="edgeStyle=orthogonalEdgeStyle;rounded=0;orthogonalLoop=1;jettySize=auto;html=1;entryX=0;entryY=0.5;entryDx=0;entryDy=0;startArrow=none;startFill=0;endArrow=none;endFill=0;fontSize=14;" parent="1" source="LVXJgCznI9-7iAya-46N-71" target="LVXJgCznI9-7iAya-46N-68" edge="1">
          <mxGeometry relative="1" as="geometry" />
        </mxCell>
        <mxCell id="LVXJgCznI9-7iAya-46N-71" value="c_nationality" style="ellipse;whiteSpace=wrap;html=1;fillColor=#f5f5f5;strokeColor=#666666;fontColor=#333333;fontStyle=0;fontSize=14;" parent="1" vertex="1">
          <mxGeometry x="-590" y="610" width="120" height="90" as="geometry" />
        </mxCell>
        <mxCell id="LVXJgCznI9-7iAya-46N-76" style="edgeStyle=orthogonalEdgeStyle;rounded=0;orthogonalLoop=1;jettySize=auto;html=1;entryX=0.75;entryY=0;entryDx=0;entryDy=0;startArrow=none;startFill=0;endArrow=none;endFill=0;" parent="1" source="LVXJgCznI9-7iAya-46N-75" target="LVXJgCznI9-7iAya-46N-68" edge="1">
          <mxGeometry relative="1" as="geometry" />
        </mxCell>
        <mxCell id="LVXJgCznI9-7iAya-46N-75" value="&lt;u style=&quot;font-size: 14px;&quot;&gt;&lt;span style=&quot;font-size: 14px; line-height: 107%; font-family: &amp;quot;맑은 고딕&amp;quot;;&quot;&gt;a_name&lt;/span&gt;&lt;/u&gt;" style="ellipse;whiteSpace=wrap;html=1;fillColor=#f5f5f5;strokeColor=#666666;fontColor=#333333;fontStyle=4;fontSize=14;" parent="1" vertex="1">
          <mxGeometry x="-350" y="520" width="70" height="60" as="geometry" />
        </mxCell>
        <mxCell id="LVXJgCznI9-7iAya-46N-79" style="edgeStyle=orthogonalEdgeStyle;rounded=0;orthogonalLoop=1;jettySize=auto;html=1;entryX=0.75;entryY=1;entryDx=0;entryDy=0;startArrow=none;startFill=0;endArrow=ERoneToMany;endFill=0;" parent="1" source="LVXJgCznI9-7iAya-46N-77" target="LVXJgCznI9-7iAya-46N-61" edge="1">
          <mxGeometry relative="1" as="geometry" />
        </mxCell>
        <mxCell id="LVXJgCznI9-7iAya-46N-103" style="edgeStyle=orthogonalEdgeStyle;rounded=0;orthogonalLoop=1;jettySize=auto;html=1;startArrow=none;startFill=0;endArrow=ERzeroToMany;endFill=1;fontSize=14;entryX=1;entryY=0.5;entryDx=0;entryDy=0;" parent="1" source="LVXJgCznI9-7iAya-46N-77" target="LVXJgCznI9-7iAya-46N-68" edge="1">
          <mxGeometry relative="1" as="geometry">
            <mxPoint x="-260" y="760" as="targetPoint" />
          </mxGeometry>
        </mxCell>
        <mxCell id="LVXJgCznI9-7iAya-46N-77" value="use" style="rhombus;whiteSpace=wrap;html=1;fillColor=#f8cecc;strokeColor=#b85450;fontSize=14;" parent="1" vertex="1">
          <mxGeometry x="-300" y="410" width="80" height="80" as="geometry" />
        </mxCell>
        <mxCell id="LVXJgCznI9-7iAya-46N-84" style="edgeStyle=orthogonalEdgeStyle;rounded=0;orthogonalLoop=1;jettySize=auto;html=1;entryX=1;entryY=0.5;entryDx=0;entryDy=0;startArrow=none;startFill=0;endArrow=ERzeroToOne;endFill=1;" parent="1" source="LVXJgCznI9-7iAya-46N-83" target="LVXJgCznI9-7iAya-46N-61" edge="1">
          <mxGeometry relative="1" as="geometry" />
        </mxCell>
        <mxCell id="LVXJgCznI9-7iAya-46N-83" value="use" style="rhombus;whiteSpace=wrap;html=1;fillColor=#f8cecc;strokeColor=#b85450;" parent="1" vertex="1">
          <mxGeometry x="-80" y="160" width="80" height="80" as="geometry" />
        </mxCell>
        <mxCell id="LVXJgCznI9-7iAya-46N-92" style="edgeStyle=orthogonalEdgeStyle;rounded=0;orthogonalLoop=1;jettySize=auto;html=1;entryX=0.75;entryY=0;entryDx=0;entryDy=0;startArrow=none;startFill=0;endArrow=ERoneToMany;endFill=0;fontSize=14;" parent="1" source="LVXJgCznI9-7iAya-46N-91" target="LVXJgCznI9-7iAya-46N-29" edge="1">
          <mxGeometry relative="1" as="geometry" />
        </mxCell>
        <mxCell id="LVXJgCznI9-7iAya-46N-93" style="edgeStyle=orthogonalEdgeStyle;rounded=0;orthogonalLoop=1;jettySize=auto;html=1;entryX=0.407;entryY=0.992;entryDx=0;entryDy=0;entryPerimeter=0;startArrow=none;startFill=0;endArrow=ERzeroToOne;endFill=1;fontSize=14;" parent="1" source="LVXJgCznI9-7iAya-46N-91" target="LVXJgCznI9-7iAya-46N-11" edge="1">
          <mxGeometry relative="1" as="geometry" />
        </mxCell>
        <mxCell id="LVXJgCznI9-7iAya-46N-91" value="have&lt;br&gt;" style="rhombus;whiteSpace=wrap;html=1;fillColor=#f8cecc;strokeColor=#b85450;" parent="1" vertex="1">
          <mxGeometry x="600" y="290" width="80" height="80" as="geometry" />
        </mxCell>
        <mxCell id="LVXJgCznI9-7iAya-46N-72" value="&lt;span style=&quot;font-size: 14px; line-height: 107%; font-family: &amp;quot;맑은 고딕&amp;quot;;&quot;&gt;c_age&lt;/span&gt;" style="ellipse;whiteSpace=wrap;html=1;fillColor=#f5f5f5;strokeColor=#666666;fontColor=#333333;fontStyle=0;fontSize=14;" parent="1" vertex="1">
          <mxGeometry x="-440" y="490" width="70" height="60" as="geometry" />
        </mxCell>
      </root>
    </mxGraphModel>
  </diagram>
</mxfile>
